# Blender v2.79 (sub 0) OBJ File: 'circusStage.blend'
# www.blender.org
mtllib circusStage.mtl
o Cube_Cube.001
v -0.276865 0.449206 -1.276342
v -0.226772 0.529938 -1.276342
v -0.276865 0.449206 -1.357277
v -0.226772 0.529938 -1.357277
v -0.205672 0.410709 -1.276342
v -0.150355 0.503277 -1.276342
v -0.205672 0.410709 -1.357277
v -0.150355 0.503277 -1.357277
v -0.152976 0.607891 -1.276342
v -0.152976 0.607891 -1.357277
v -0.099708 0.546957 -1.357277
v -0.099708 0.546957 -1.276342
v -0.076714 0.646212 -1.276342
v -0.076714 0.646212 -1.357277
v -0.028936 0.580885 -1.357277
v -0.028936 0.580885 -1.276342
v -0.306341 0.348952 -1.357277
v -0.306341 0.348952 -1.276342
v -0.225407 0.348703 -1.357277
v -0.225407 0.348703 -1.276342
v -0.306341 0.013454 -1.357277
v -0.306341 0.013454 -1.276342
v -0.225407 0.013205 -1.357277
v -0.225407 0.013205 -1.276342
v -0.587132 0.348952 -1.308563
v -0.558731 0.348952 -1.232775
v -0.587132 0.013454 -1.308563
v -0.558731 0.013454 -1.232775
v -0.912368 0.348952 -1.088420
v -0.869521 0.348952 -1.019757
v -0.912368 0.013454 -1.088420
v -0.869521 0.013454 -1.019757
v -1.139039 0.348952 -0.825297
v -1.071214 0.348952 -0.781136
v -1.139039 0.013454 -0.825297
v -1.071214 0.013454 -0.781136
v -1.320288 0.348952 -0.423020
v -1.240650 0.348952 -0.408594
v -1.320288 0.013454 -0.423020
v -1.240650 0.013454 -0.408594
v -1.401643 0.348952 0.031869
v -1.320798 0.348952 0.028066
v -1.401643 0.013454 0.031869
v -1.320798 0.013454 0.028066
v -1.268728 0.348952 0.558205
v -1.189452 0.348952 0.541906
v -1.268728 0.013454 0.558205
v -1.189452 0.013454 0.541906
v -1.013453 0.348952 0.975823
v -0.979466 0.348952 0.902371
v -1.013453 0.013454 0.975823
v -0.979466 0.013454 0.902371
v -0.544969 0.348952 1.321201
v -0.524623 0.348952 1.242865
v -0.544969 0.013454 1.321201
v -0.524623 0.013454 1.242865
v 0.276865 0.449206 -1.276342
v 0.226772 0.529938 -1.276342
v 0.276865 0.449206 -1.357277
v 0.226772 0.529938 -1.357277
v 0.205672 0.410709 -1.276342
v 0.150355 0.503277 -1.276342
v 0.205672 0.410709 -1.357277
v 0.150355 0.503277 -1.357277
v 0.152976 0.607891 -1.276342
v 0.152976 0.607891 -1.357277
v 0.099708 0.546957 -1.357277
v 0.099708 0.546957 -1.276342
v 0.076714 0.646212 -1.276342
v 0.076714 0.646212 -1.357277
v 0.028936 0.580885 -1.357277
v 0.028936 0.580885 -1.276342
v 0.000000 0.665210 -1.276342
v 0.000000 0.665210 -1.357277
v 0.000000 0.584417 -1.357277
v 0.000000 0.584417 -1.276342
v 0.306341 0.348952 -1.357277
v 0.306341 0.348952 -1.276342
v 0.225407 0.348703 -1.357277
v 0.225407 0.348703 -1.276342
v 0.306341 0.013454 -1.357277
v 0.306341 0.013454 -1.276342
v 0.225407 0.013205 -1.357277
v 0.225407 0.013205 -1.276342
v 0.587132 0.348952 -1.308563
v 0.558731 0.348952 -1.232775
v 0.587132 0.013454 -1.308563
v 0.558731 0.013454 -1.232775
v 0.912368 0.348952 -1.088420
v 0.869521 0.348952 -1.019757
v 0.912368 0.013454 -1.088420
v 0.869521 0.013454 -1.019757
v 1.139039 0.348952 -0.825297
v 1.071214 0.348952 -0.781136
v 1.139039 0.013454 -0.825297
v 1.071214 0.013454 -0.781136
v 1.320288 0.348952 -0.423020
v 1.240650 0.348952 -0.408594
v 1.320288 0.013454 -0.423020
v 1.240650 0.013454 -0.408594
v 1.401643 0.348952 0.031869
v 1.320798 0.348952 0.028066
v 1.401643 0.013454 0.031869
v 1.320798 0.013454 0.028066
v 1.268728 0.348952 0.558205
v 1.189452 0.348952 0.541906
v 1.268728 0.013454 0.558205
v 1.189452 0.013454 0.541906
v 1.013453 0.348952 0.975823
v 0.979466 0.348952 0.902371
v 1.013453 0.013454 0.975823
v 0.979466 0.013454 0.902371
v 0.544969 0.348952 1.321201
v 0.524623 0.348952 1.242865
v 0.544969 0.013454 1.321201
v 0.524623 0.013454 1.242865
v 0.000000 0.348952 1.461590
v 0.000000 0.348952 1.380701
v 0.000000 0.013454 1.461590
v 0.000000 0.013454 1.380701
vt 0.897120 0.400658
vt 0.895253 0.396306
vt 0.898954 0.394764
vt 0.900853 0.399015
vt 0.901912 0.391908
vt 0.904797 0.397243
vt 0.905810 0.390028
vt 0.908474 0.394829
vt 0.154820 0.253645
vt 0.154422 0.277427
vt 0.137000 0.273537
vt 0.137000 0.252581
vt 0.925807 0.279725
vt 0.908347 0.283442
vt 0.908347 0.260393
vt 0.925489 0.265376
vt 0.900559 0.388522
vt 0.904455 0.386998
vt 0.162499 0.395019
vt 0.167283 0.377821
vt 0.184594 0.377821
vt 0.181321 0.395369
vt 0.893419 0.391356
vt 0.896999 0.390219
vt 0.873436 0.312833
vt 0.882256 0.297312
vt 0.897007 0.297214
vt 0.897007 0.315065
vt 0.899325 0.384555
vt 0.895955 0.386566
vt 0.895178 0.383052
vt 0.899058 0.383107
vt 0.903210 0.383420
vt 0.892362 0.387457
vt 0.902844 0.382104
vt 0.891535 0.383900
vt 0.946664 0.348040
vt 0.953429 0.331521
vt 0.959812 0.330743
vt 0.964095 0.348040
vt 0.898168 0.534153
vt 0.880316 0.534208
vt 0.880316 0.460208
vt 0.898168 0.460153
vt 0.906867 0.400537
vt 0.903808 0.404224
vt 0.899240 0.405566
vt 0.910541 0.397406
vt 0.918260 0.412246
vt 0.919165 0.409380
vt 0.922536 0.408345
vt 0.922298 0.413102
vt 0.823824 0.534208
vt 0.823824 0.460208
vt 0.897528 0.418353
vt 0.901117 0.419123
vt 0.895740 0.435767
vt 0.892019 0.435258
vt 0.918481 0.425500
vt 0.914772 0.424289
vt 0.909931 0.440814
vt 0.905179 0.455408
vt 0.891006 0.450403
vt 0.913255 0.442562
vt 0.083234 0.326836
vt 0.083234 0.400836
vt 0.000128 0.400836
vt 0.000128 0.326836
vt 0.205973 0.597091
vt 0.205973 0.671091
vt 0.115703 0.671091
vt 0.115703 0.597091
vt 0.908613 0.456548
vt 0.920169 0.666424
vt 0.920169 0.740424
vt 0.851254 0.740424
vt 0.851254 0.666424
vt 0.887554 0.449303
vt 0.884772 0.468994
vt 0.899258 0.474057
vt 0.892551 0.493500
vt 0.878810 0.488503
vt 0.881375 0.467402
vt 0.902951 0.474776
vt 0.896152 0.494625
vt 0.888773 0.517822
vt 0.885625 0.516009
vt 0.920196 0.204679
vt 0.920196 0.278679
vt 0.822274 0.278679
vt 0.822274 0.204679
vt 0.875241 0.487299
vt 0.946370 0.847671
vt 0.946370 0.921671
vt 0.854357 0.921671
vt 0.854357 0.847671
vt 0.156481 0.417453
vt 0.156481 0.491453
vt 0.039500 0.491453
vt 0.039500 0.417453
vt 0.871095 0.510876
vt 0.867486 0.510483
vt 0.864557 0.531966
vt 0.878436 0.537005
vt 0.870669 0.560712
vt 0.856813 0.555724
vt 0.861817 0.529523
vt 0.882099 0.536648
vt 0.877972 0.138187
vt 0.877972 0.090680
vt 0.954782 0.090680
vt 0.954782 0.138187
vt 0.874316 0.561042
vt 0.024736 0.148973
vt 0.024736 0.074973
vt 0.150056 0.074973
vt 0.150056 0.148973
vt 0.853641 0.553821
vt 0.847608 0.580227
vt 0.844300 0.577870
vt 0.863846 0.585401
vt 0.867818 0.585448
vt 0.897120 0.400658
vt 0.900853 0.399015
vt 0.898954 0.394764
vt 0.895253 0.396306
vt 0.904797 0.397243
vt 0.901912 0.391908
vt 0.908474 0.394829
vt 0.905810 0.390028
vt 0.154820 0.253645
vt 0.137000 0.252581
vt 0.137000 0.273537
vt 0.154422 0.277427
vt 0.925807 0.279725
vt 0.925489 0.265376
vt 0.908347 0.260393
vt 0.908347 0.283442
vt 0.904455 0.386998
vt 0.900559 0.388522
vt 0.162499 0.395019
vt 0.181321 0.395369
vt 0.184594 0.377821
vt 0.167283 0.377821
vt 0.896999 0.390219
vt 0.893419 0.391356
vt 0.873436 0.312833
vt 0.897007 0.315065
vt 0.897007 0.297214
vt 0.882256 0.297312
vt 0.899325 0.384555
vt 0.895955 0.386566
vt 0.903210 0.383420
vt 0.892362 0.387457
vt 0.946664 0.348040
vt 0.953429 0.331521
vt 0.898168 0.534153
vt 0.898168 0.460153
vt 0.880316 0.460208
vt 0.880316 0.534208
vt 0.903808 0.404224
vt 0.906867 0.400537
vt 0.899240 0.405566
vt 0.910541 0.397406
vt 0.918260 0.412246
vt 0.922298 0.413102
vt 0.922536 0.408345
vt 0.919165 0.409380
vt 0.823824 0.460208
vt 0.823824 0.534208
vt 0.897528 0.418353
vt 0.892019 0.435258
vt 0.895740 0.435767
vt 0.901117 0.419123
vt 0.914772 0.424289
vt 0.918481 0.425500
vt 0.891006 0.450403
vt 0.905179 0.455408
vt 0.909931 0.440814
vt 0.913255 0.442562
vt 0.083234 0.326836
vt 0.000128 0.326836
vt 0.000128 0.400836
vt 0.083234 0.400836
vt 0.205973 0.597091
vt 0.115703 0.597091
vt 0.115703 0.671091
vt 0.205973 0.671091
vt 0.908613 0.456548
vt 0.920169 0.666424
vt 0.851254 0.666424
vt 0.851254 0.740424
vt 0.920169 0.740424
vt 0.887554 0.449303
vt 0.884772 0.468994
vt 0.878810 0.488503
vt 0.892551 0.493500
vt 0.899258 0.474057
vt 0.881375 0.467402
vt 0.902951 0.474776
vt 0.885625 0.516009
vt 0.888773 0.517822
vt 0.896152 0.494625
vt 0.920196 0.204679
vt 0.822274 0.204679
vt 0.822274 0.278679
vt 0.920196 0.278679
vt 0.875241 0.487299
vt 0.946370 0.847671
vt 0.854357 0.847671
vt 0.854357 0.921671
vt 0.946370 0.921671
vt 0.156481 0.417453
vt 0.039500 0.417453
vt 0.039500 0.491453
vt 0.156481 0.491453
vt 0.867486 0.510483
vt 0.871095 0.510876
vt 0.864557 0.531966
vt 0.856813 0.555724
vt 0.870669 0.560712
vt 0.878436 0.537005
vt 0.861817 0.529523
vt 0.882099 0.536648
vt 0.877972 0.138187
vt 0.877972 0.090680
vt 0.874316 0.561042
vt 0.024736 0.148973
vt 0.150056 0.148973
vt 0.150056 0.074973
vt 0.024736 0.074973
vt 0.853641 0.553821
vn -0.8497 0.5272 0.0000
vn 0.0000 0.0000 -1.0000
vn 0.8584 -0.5130 0.0000
vn 0.0000 0.0000 1.0000
vn 0.6531 -0.7573 -0.0000
vn -0.7262 0.6875 0.0000
vn 0.4323 -0.9017 0.0000
vn -0.4490 0.8935 0.0000
vn 0.1212 -0.9926 0.0000
vn -0.2404 0.9707 0.0000
vn -0.9594 0.2821 0.0000
vn 0.9529 -0.3033 0.0000
vn -0.0031 -1.0000 0.0000
vn 1.0000 0.0000 0.0000
vn 0.1701 0.0000 0.9854
vn 0.0000 1.0000 0.0000
vn 0.0000 -1.0000 0.0000
vn -0.1709 0.0000 -0.9853
vn -0.7576 0.0000 -0.6527
vn -0.5605 0.0000 -0.8281
vn 0.5654 0.0000 0.8248
vn 0.9103 0.0000 0.4140
vn 0.7637 0.0000 0.6455
vn -0.9844 0.0000 -0.1761
vn -0.9117 0.0000 -0.4108
vn 0.9836 0.0000 0.1805
vn 0.8641 0.0000 -0.5034
vn 0.9688 0.0000 -0.2477
vn -0.9696 0.0000 0.2448
vn -0.5934 0.0000 0.8049
vn -0.8532 0.0000 0.5215
vn 0.2541 0.0000 -0.9672
vn 0.5993 0.0000 -0.8005
vn -0.2495 0.0000 0.9684
vn 0.8497 0.5272 0.0000
vn -0.8584 -0.5130 0.0000
vn -0.6531 -0.7573 0.0000
vn 0.7262 0.6875 0.0000
vn -0.4323 -0.9017 0.0000
vn 0.4490 0.8935 0.0000
vn -0.1212 -0.9926 0.0000
vn 0.2404 0.9707 0.0000
vn 0.9594 0.2821 0.0000
vn -0.9529 -0.3033 0.0000
vn 0.0031 -1.0000 0.0000
vn -1.0000 0.0000 0.0000
vn -0.1701 0.0000 0.9854
vn 0.1709 0.0000 -0.9853
vn 0.7576 0.0000 -0.6527
vn 0.5605 0.0000 -0.8281
vn -0.5654 0.0000 0.8248
vn -0.9103 0.0000 0.4140
vn -0.7637 0.0000 0.6455
vn 0.9844 0.0000 -0.1761
vn 0.9117 0.0000 -0.4108
vn -0.9836 0.0000 0.1805
vn -0.8641 0.0000 -0.5034
vn -0.9688 0.0000 -0.2477
vn 0.9696 0.0000 0.2448
vn 0.5934 0.0000 0.8049
vn 0.8532 0.0000 0.5215
vn -0.2541 0.0000 -0.9672
vn -0.5993 0.0000 -0.8005
vn 0.2495 0.0000 0.9684
usemtl CircusStage
s off
f 1/1/1 2/2/1 4/3/1 3/4/1
f 3/4/2 4/3/2 8/5/2 7/6/2
f 7/6/3 8/5/3 6/7/3 5/8/3
f 5/9/4 6/10/4 2/11/4 1/12/4
f 5/13/4 1/14/4 18/15/4 20/16/4
f 6/7/5 8/5/5 11/17/5 12/18/5
f 9/19/4 12/20/4 16/21/4 13/22/4
f 4/3/6 2/2/6 9/23/6 10/24/6
f 2/25/4 6/26/4 12/27/4 9/28/4
f 8/5/2 4/3/2 10/24/2 11/17/2
f 15/29/2 14/30/2 74/31/2 75/32/2
f 11/17/2 10/24/2 14/30/2 15/29/2
f 12/18/7 11/17/7 15/29/7 16/33/7
f 10/24/8 9/23/8 13/34/8 14/30/8
f 16/33/9 15/29/9 75/32/9 76/35/9
f 14/30/10 13/34/10 73/36/10 74/31/10
f 13/37/4 16/38/4 76/39/4 73/40/4
f 20/41/4 18/42/4 22/43/4 24/44/4
f 3/4/2 7/6/2 19/45/2 17/46/2
f 1/1/11 3/4/11 17/46/11 18/47/11
f 7/6/12 5/8/12 20/48/12 19/45/12
f 21/49/13 23/50/13 24/51/13 22/52/13
f 17/46/2 19/45/2 23/50/2 21/49/2
f 19/45/14 20/48/14 24/51/14 23/50/14
f 22/43/15 18/42/15 26/53/15 28/54/15
f 26/55/16 25/56/16 29/57/16 30/58/16
f 21/49/17 22/52/17 28/59/17 27/60/17
f 17/46/18 21/49/18 27/60/18 25/56/18
f 18/47/16 17/46/16 25/56/16 26/55/16
f 29/57/19 31/61/19 35/62/19 33/63/19
f 25/56/20 27/60/20 31/61/20 29/57/20
f 27/60/17 28/59/17 32/64/17 31/61/17
f 28/65/21 26/66/21 30/67/21 32/68/21
f 36/69/22 34/70/22 38/71/22 40/72/22
f 31/61/17 32/64/17 36/73/17 35/62/17
f 32/74/23 30/75/23 34/76/23 36/77/23
f 30/58/16 29/57/16 33/63/16 34/78/16
f 37/79/24 39/80/24 43/81/24 41/82/24
f 34/78/16 33/63/16 37/79/16 38/83/16
f 33/63/25 35/62/25 39/80/25 37/79/25
f 35/62/17 36/73/17 40/84/17 39/80/17
f 43/81/17 44/85/17 48/86/17 47/87/17
f 39/80/17 40/84/17 44/85/17 43/81/17
f 40/88/26 38/89/26 42/90/26 44/91/26
f 38/83/16 37/79/16 41/82/16 42/92/16
f 48/93/27 46/94/27 50/95/27 52/96/27
f 44/97/28 42/98/28 46/99/28 48/100/28
f 42/92/16 41/82/16 45/101/16 46/102/16
f 41/82/29 43/81/29 47/87/29 45/101/29
f 49/103/30 51/104/30 55/105/30 53/106/30
f 46/102/16 45/101/16 49/103/16 50/107/16
f 45/101/31 47/87/31 51/104/31 49/103/31
f 47/87/17 48/86/17 52/108/17 51/104/17
f 56/109/32 54/110/32 118/111/32 120/112/32
f 51/104/17 52/108/17 56/113/17 55/105/17
f 52/114/33 50/115/33 54/116/33 56/117/33
f 50/107/16 49/103/16 53/106/16 54/118/16
f 54/118/16 53/106/16 117/119/16 118/120/16
f 53/106/34 55/105/34 119/121/34 117/119/34
f 55/105/17 56/113/17 120/122/17 119/121/17
f 57/123/35 59/124/35 60/125/35 58/126/35
f 59/124/2 63/127/2 64/128/2 60/125/2
f 63/127/36 61/129/36 62/130/36 64/128/36
f 61/131/4 57/132/4 58/133/4 62/134/4
f 61/135/4 80/136/4 78/137/4 57/138/4
f 62/130/37 68/139/37 67/140/37 64/128/37
f 65/141/4 69/142/4 72/143/4 68/144/4
f 60/125/38 66/145/38 65/146/38 58/126/38
f 58/147/4 65/148/4 68/149/4 62/150/4
f 64/128/2 67/140/2 66/145/2 60/125/2
f 71/151/2 75/32/2 74/31/2 70/152/2
f 67/140/2 71/151/2 70/152/2 66/145/2
f 68/139/39 72/153/39 71/151/39 67/140/39
f 66/145/40 70/152/40 69/154/40 65/146/40
f 72/153/41 76/35/41 75/32/41 71/151/41
f 70/152/42 74/31/42 73/36/42 69/154/42
f 69/155/4 73/40/4 76/39/4 72/156/4
f 80/157/4 84/158/4 82/159/4 78/160/4
f 59/124/2 77/161/2 79/162/2 63/127/2
f 57/123/43 78/163/43 77/161/43 59/124/43
f 63/127/44 79/162/44 80/164/44 61/129/44
f 81/165/45 82/166/45 84/167/45 83/168/45
f 77/161/2 81/165/2 83/168/2 79/162/2
f 79/162/46 83/168/46 84/167/46 80/164/46
f 82/159/47 88/169/47 86/170/47 78/160/47
f 86/171/16 90/172/16 89/173/16 85/174/16
f 81/165/17 87/175/17 88/176/17 82/166/17
f 77/161/48 85/174/48 87/175/48 81/165/48
f 78/163/16 86/171/16 85/174/16 77/161/16
f 89/173/49 93/177/49 95/178/49 91/179/49
f 85/174/50 89/173/50 91/179/50 87/175/50
f 87/175/17 91/179/17 92/180/17 88/176/17
f 88/181/51 92/182/51 90/183/51 86/184/51
f 96/185/52 100/186/52 98/187/52 94/188/52
f 91/179/17 95/178/17 96/189/17 92/180/17
f 92/190/53 96/191/53 94/192/53 90/193/53
f 90/172/16 94/194/16 93/177/16 89/173/16
f 97/195/54 101/196/54 103/197/54 99/198/54
f 94/194/16 98/199/16 97/195/16 93/177/16
f 93/177/55 97/195/55 99/198/55 95/178/55
f 95/178/17 99/198/17 100/200/17 96/189/17
f 103/197/17 107/201/17 108/202/17 104/203/17
f 99/198/17 103/197/17 104/203/17 100/200/17
f 100/204/56 104/205/56 102/206/56 98/207/56
f 98/199/16 102/208/16 101/196/16 97/195/16
f 108/209/57 112/210/57 110/211/57 106/212/57
f 104/213/58 108/214/58 106/215/58 102/216/58
f 102/208/16 106/217/16 105/218/16 101/196/16
f 101/196/59 105/218/59 107/201/59 103/197/59
f 109/219/60 113/220/60 115/221/60 111/222/60
f 106/217/16 110/223/16 109/219/16 105/218/16
f 105/218/61 109/219/61 111/222/61 107/201/61
f 107/201/17 111/222/17 112/224/17 108/202/17
f 116/225/62 120/112/62 118/111/62 114/226/62
f 111/222/17 115/221/17 116/227/17 112/224/17
f 112/228/63 116/229/63 114/230/63 110/231/63
f 110/223/16 114/232/16 113/220/16 109/219/16
f 114/232/16 118/120/16 117/119/16 113/220/16
f 113/220/64 117/119/64 119/121/64 115/221/64
f 115/221/17 119/121/17 120/122/17 116/227/17
o Circle
v 0.000000 -0.008190 -1.459467
v -0.284728 -0.008190 -1.431424
v -0.558514 -0.008190 -1.348372
v -0.810836 -0.008190 -1.213502
v -1.031999 -0.008190 -1.031999
v -1.213503 -0.008190 -0.810836
v -1.348372 -0.008190 -0.558514
v -1.431424 -0.008190 -0.284728
v -1.459467 -0.008190 -0.000000
v -1.431424 -0.008190 0.284728
v -1.348372 -0.008190 0.558514
v -1.213503 -0.008190 0.810836
v -1.031999 -0.008190 1.031999
v -0.810836 -0.008190 1.213503
v -0.558514 -0.008190 1.348372
v -0.284728 -0.008190 1.431424
v 0.000000 -0.008190 1.459467
v 0.284728 -0.008190 1.431424
v 0.558514 -0.008190 1.348371
v 0.810837 -0.008190 1.213502
v 1.032000 -0.008190 1.031998
v 1.213503 -0.008190 0.810836
v 1.348372 -0.008190 0.558513
v 1.431424 -0.008190 0.284727
v 1.459467 -0.008190 -0.000001
v 1.431423 -0.008190 -0.284729
v 1.348371 -0.008190 -0.558515
v 1.213501 -0.008190 -0.810838
v 1.031998 -0.008190 -1.032000
v 0.810835 -0.008190 -1.213503
v 0.558512 -0.008190 -1.348372
v 0.284726 -0.008190 -1.431424
v 0.000000 0.020887 -1.459467
v -0.284728 0.020887 -1.431424
v -0.558514 0.020887 -1.348372
v -0.810836 0.020887 -1.213502
v -1.031999 0.020887 -1.031999
v -1.213503 0.020887 -0.810836
v -1.348372 0.020887 -0.558514
v -1.431424 0.020887 -0.284728
v -1.459467 0.020887 -0.000000
v -1.431424 0.020887 0.284728
v -1.348372 0.020887 0.558514
v -1.213503 0.020887 0.810836
v -1.031999 0.020887 1.031999
v -0.810836 0.020887 1.213503
v -0.558514 0.020887 1.348372
v -0.284728 0.020887 1.431424
v 0.000000 0.020887 1.459467
v 0.284728 0.020887 1.431424
v 0.558514 0.020887 1.348371
v 0.810837 0.020887 1.213502
v 1.032000 0.020887 1.031998
v 1.213503 0.020887 0.810836
v 1.348372 0.020887 0.558513
v 1.431424 0.020887 0.284727
v 1.459467 0.020887 -0.000001
v 1.431423 0.020887 -0.284729
v 1.348371 0.020887 -0.558515
v 1.213501 0.020887 -0.810838
v 1.031998 0.020887 -1.032000
v 0.810835 0.020887 -1.213503
v 0.558512 0.020887 -1.348372
v 0.284726 0.020887 -1.431424
vn 0.0000 -1.0000 0.0000
vn 0.0000 1.0000 -0.0000
vn -0.2903 0.0000 -0.9569
vn 0.6344 0.0000 -0.7730
vn -0.0980 0.0000 0.9952
vn -0.4714 0.0000 -0.8819
vn 0.4714 0.0000 -0.8819
vn 0.0980 0.0000 0.9952
vn -0.6344 0.0000 -0.7730
vn 0.2903 0.0000 -0.9569
vn 0.2903 0.0000 0.9569
vn -0.7730 0.0000 -0.6344
vn 0.0980 0.0000 -0.9952
vn 0.4714 0.0000 0.8819
vn -0.8819 0.0000 -0.4714
vn 0.6344 0.0000 0.7730
vn -0.9569 0.0000 -0.2903
vn 0.7730 0.0000 0.6344
vn -0.9952 0.0000 -0.0980
vn 0.8819 0.0000 0.4714
vn -0.9952 0.0000 0.0980
vn 0.9569 0.0000 0.2903
vn -0.9569 0.0000 0.2903
vn 0.9952 0.0000 0.0980
vn -0.8819 0.0000 0.4714
vn 0.9952 0.0000 -0.0980
vn -0.7730 0.0000 0.6344
vn 0.9569 0.0000 -0.2903
vn -0.6344 0.0000 0.7730
vn 0.8819 0.0000 -0.4714
vn -0.4714 0.0000 0.8819
vn -0.0980 0.0000 -0.9952
vn 0.7730 0.0000 -0.6344
vn -0.2903 0.0000 0.9569
usemtl None
s off
f 122//65 121//65 152//65 151//65 150//65 149//65 148//65 147//65 146//65 145//65 144//65 143//65 142//65 141//65 140//65 139//65 138//65 137//65 136//65 135//65 134//65 133//65 132//65 131//65 130//65 129//65 128//65 127//65 126//65 125//65 124//65 123//65
f 154//66 155//66 156//66 157//66 158//66 159//66 160//66 161//66 162//66 163//66 164//66 165//66 166//66 167//66 168//66 169//66 170//66 171//66 172//66 173//66 174//66 175//66 176//66 177//66 178//66 179//66 180//66 181//66 182//66 183//66 184//66 153//66
f 122//67 123//67 155//67 154//67
f 149//68 150//68 182//68 181//68
f 136//69 137//69 169//69 168//69
f 123//70 124//70 156//70 155//70
f 150//71 151//71 183//71 182//71
f 137//72 138//72 170//72 169//72
f 124//73 125//73 157//73 156//73
f 151//74 152//74 184//74 183//74
f 138//75 139//75 171//75 170//75
f 125//76 126//76 158//76 157//76
f 152//77 121//77 153//77 184//77
f 139//78 140//78 172//78 171//78
f 126//79 127//79 159//79 158//79
f 140//80 141//80 173//80 172//80
f 127//81 128//81 160//81 159//81
f 141//82 142//82 174//82 173//82
f 128//83 129//83 161//83 160//83
f 142//84 143//84 175//84 174//84
f 129//85 130//85 162//85 161//85
f 143//86 144//86 176//86 175//86
f 130//87 131//87 163//87 162//87
f 144//88 145//88 177//88 176//88
f 131//89 132//89 164//89 163//89
f 145//90 146//90 178//90 177//90
f 132//91 133//91 165//91 164//91
f 146//92 147//92 179//92 178//92
f 133//93 134//93 166//93 165//93
f 147//94 148//94 180//94 179//94
f 134//95 135//95 167//95 166//95
f 121//96 122//96 154//96 153//96
f 148//97 149//97 181//97 180//97
f 135//98 136//98 168//98 167//98
