# Blender v2.79 (sub 0) OBJ File: 'gun.blend'
# www.blender.org
mtllib gun.mtl
o Cylinder
v -0.000000 0.884775 3.796105
v 0.172611 0.867774 3.796105
v 0.338589 0.817426 3.796105
v 0.491555 0.735664 3.796105
v 0.625631 0.625630 3.796105
v 0.735664 0.491555 3.796105
v 0.817426 0.338589 3.796105
v 0.867775 0.172611 3.796105
v 0.884775 -0.000000 3.796105
v 0.867775 -0.172611 3.796105
v 0.817426 -0.338589 3.796105
v 0.735664 -0.491555 3.796105
v 0.625631 -0.625631 3.796105
v 0.491555 -0.735664 3.796105
v 0.338589 -0.817426 3.796105
v 0.172611 -0.867775 3.796105
v -0.000000 -0.884775 3.796105
v -0.172611 -0.867775 3.796105
v -0.338589 -0.817426 3.796105
v -0.491555 -0.735664 3.796105
v -0.625631 -0.625630 3.796105
v -0.735664 -0.491554 3.796105
v -0.817426 -0.338588 3.796105
v -0.867775 -0.172611 3.796105
v -0.884775 0.000001 3.796105
v -0.867774 0.172612 3.796105
v -0.817425 0.338590 3.796105
v -0.735663 0.491556 3.796105
v -0.625630 0.625631 3.796105
v -0.491554 0.735664 3.796105
v -0.338588 0.817426 3.796105
v -0.172610 0.867775 3.796105
v -0.000000 0.921232 -2.316432
v 0.179723 0.903530 -2.316432
v 0.352540 0.851107 -2.316432
v 0.511809 0.765976 -2.316432
v 0.651409 0.651409 -2.316432
v 0.765976 0.511809 -2.316432
v 0.851107 0.352540 -2.316432
v 0.903530 0.179724 -2.316432
v 0.921231 0.000000 -2.316432
v 0.903530 -0.179723 -2.316432
v 0.851107 -0.352540 -2.316432
v 0.765976 -0.511809 -2.316432
v 0.651409 -0.651409 -2.316432
v 0.511809 -0.765976 -2.316432
v 0.352540 -0.851107 -2.316432
v 0.179723 -0.903530 -2.316432
v -0.000000 -0.921231 -2.316432
v -0.179724 -0.903530 -2.316432
v -0.352540 -0.851106 -2.316432
v -0.511809 -0.765975 -2.316432
v -0.651409 -0.651408 -2.316432
v -0.765976 -0.511808 -2.316432
v -0.851107 -0.352539 -2.316432
v -0.903530 -0.179722 -2.316432
v -0.921231 0.000001 -2.316432
v -0.903530 0.179724 -2.316432
v -0.851106 0.352541 -2.316432
v -0.765975 0.511810 -2.316432
v -0.651408 0.651410 -2.316432
v -0.511808 0.765977 -2.316432
v -0.352539 0.851108 -2.316432
v -0.179722 0.903531 -2.316432
v 0.000000 1.198307 -4.298482
v 0.233778 1.175282 -4.298482
v 0.233778 1.175282 -2.297119
v 0.458572 1.107091 -4.298482
v 0.458572 1.107091 -2.297119
v 0.665744 0.996356 -4.298482
v 0.665744 0.996356 -2.297119
v 0.847331 0.847331 -4.298482
v 0.847331 0.847331 -2.297119
v 0.996356 0.665744 -4.298482
v 0.996356 0.665744 -2.297119
v 1.107091 0.458572 -4.298482
v 1.107091 0.458572 -2.297119
v 1.175282 0.233778 -4.298482
v 1.175282 0.233778 -2.297119
v 1.198307 0.000000 -4.298482
v 1.198307 0.000000 -2.297119
v 1.175282 -0.233778 -4.298482
v 1.175282 -0.233778 -2.297119
v 1.107091 -0.458572 -4.298482
v 1.107091 -0.458572 -2.297119
v 0.996356 -0.665743 -4.298482
v 0.996356 -0.665743 -2.297119
v 0.847331 -0.847331 -4.298482
v 0.847331 -0.847331 -2.297119
v 0.665744 -0.996356 -4.298482
v 0.665744 -0.996356 -2.297119
v 0.458572 -1.107091 -4.298482
v 0.458572 -1.107091 -2.297119
v 0.233778 -1.175282 -4.298482
v 0.233778 -1.175282 -2.297119
v -0.000000 -1.198307 -4.298482
v -0.000000 -1.198307 -2.297119
v -0.233779 -1.175281 -4.298482
v -0.233779 -1.175282 -2.297119
v -0.458573 -1.107091 -4.298482
v -0.458573 -1.107091 -2.297119
v -0.665744 -0.996355 -4.298482
v -0.665744 -0.996355 -2.297119
v -0.847331 -0.847330 -4.298482
v -0.847331 -0.847330 -2.297119
v -0.996356 -0.665743 -4.298482
v -0.996356 -0.665743 -2.297119
v -1.107092 -0.458571 -4.298482
v -1.107092 -0.458571 -2.297119
v -1.175282 -0.233777 -4.298482
v -1.175282 -0.233777 -2.297119
v -1.198307 0.000001 -4.298482
v -1.198307 0.000001 -2.297119
v -1.175281 0.233779 -4.298482
v -1.175281 0.233779 -2.297119
v -1.107091 0.458574 -4.298482
v -1.107090 0.458573 -2.297119
v -0.996355 0.665745 -4.298482
v -0.996355 0.665745 -2.297119
v -0.847330 0.847332 -4.298482
v -0.847330 0.847332 -2.297119
v -0.665742 0.996357 -4.298482
v -0.665742 0.996357 -2.297119
v -0.458571 1.107092 -4.298482
v -0.458571 1.107092 -2.297119
v -0.233776 1.175282 -4.298482
v -0.233776 1.175282 -2.297119
v 0.000000 1.198307 -2.297119
v -0.000000 0.613850 3.772840
v 0.119763 0.602051 3.772840
v 0.234910 0.567118 3.772840
v 0.341040 0.510400 3.772840
v 0.434061 0.434060 3.772840
v 0.510400 0.341039 3.772840
v 0.567119 0.234909 3.772840
v 0.602051 0.119762 3.772840
v 0.613850 -0.000000 3.772840
v 0.602051 -0.119763 3.772840
v 0.567119 -0.234910 3.772840
v 0.510400 -0.341040 3.772840
v 0.434061 -0.434061 3.772840
v 0.341040 -0.510400 3.772840
v 0.234910 -0.567119 3.772840
v 0.119762 -0.602051 3.772840
v -0.000000 -0.613850 3.772840
v -0.119763 -0.602051 3.772840
v -0.234910 -0.567127 3.772840
v -0.341040 -0.510400 3.772840
v -0.434061 -0.434060 3.772840
v -0.510400 -0.341039 3.772840
v -0.567119 -0.234909 3.772840
v -0.602051 -0.119762 3.772840
v -0.613850 0.000001 3.772840
v -0.602051 0.119763 3.772840
v -0.567126 0.234910 3.772840
v -0.510399 0.341040 3.772840
v -0.434060 0.434061 3.772840
v -0.341039 0.510400 3.772840
v -0.234908 0.567119 3.772840
v -0.119761 0.602051 3.772840
v -0.000000 0.740182 -3.081892
v 0.144408 0.725962 -3.081892
v 0.283258 0.683836 -3.081892
v 0.411223 0.615436 -3.081892
v 0.523390 0.523390 -3.081892
v 0.615436 0.411223 -3.081892
v 0.683836 0.283258 -3.081892
v 0.725962 0.144408 -3.081892
v 0.740182 0.000000 -3.081892
v 0.725962 -0.144408 -3.081892
v 0.683836 -0.283258 -3.081892
v 0.615436 -0.411222 -3.081892
v 0.523390 -0.523389 -3.081892
v 0.411223 -0.615436 -3.081892
v 0.283258 -0.683836 -3.081892
v 0.144408 -0.725962 -3.081892
v -0.000000 -0.740181 -3.081892
v -0.144409 -0.725962 -3.081892
v -0.283258 -0.683835 -3.081892
v -0.411223 -0.615435 -3.081892
v -0.523390 -0.523389 -3.081892
v -0.615436 -0.411222 -3.081892
v -0.683836 -0.283257 -3.081892
v -0.725962 -0.144407 -3.081892
v -0.740182 0.000001 -3.081892
v -0.725962 0.144409 -3.081892
v -0.683843 0.283259 -3.081892
v -0.615435 0.411224 -3.081892
v -0.523389 0.523391 -3.081892
v -0.411222 0.615437 -3.081892
v -0.283257 0.683836 -3.081892
v -0.144407 0.725963 -3.081892
v 0.000000 0.927307 -4.298482
v 0.180913 0.909492 -4.298482
v 0.195610 0.983397 -3.008955
v 0.354868 0.856726 -4.298482
v 0.383707 0.926339 -3.008955
v 0.515187 0.771034 -4.298482
v 0.557052 0.833683 -3.008955
v 0.655711 0.655711 -4.298482
v 0.708990 0.708990 -3.008955
v 0.771034 0.515187 -4.298482
v 0.833683 0.557052 -3.008955
v 0.856726 0.354868 -4.298482
v 0.926339 0.383708 -3.008955
v 0.909492 0.180913 -4.298482
v 0.983397 0.195610 -3.008955
v 0.927315 0.000000 -4.298482
v 1.002668 0.000000 -3.008955
v 0.909492 -0.180913 -4.298482
v 0.983397 -0.195609 -3.008955
v 0.856726 -0.354868 -4.298482
v 0.926339 -0.383707 -3.008955
v 0.771034 -0.515187 -4.298482
v 0.833683 -0.557052 -3.008955
v 0.655711 -0.655711 -4.298482
v 0.708990 -0.708990 -3.008955
v 0.515187 -0.771034 -4.298482
v 0.557052 -0.833683 -3.008955
v 0.354868 -0.856726 -4.298482
v 0.383707 -0.926339 -3.008955
v 0.180913 -0.909492 -4.298482
v 0.195609 -0.983397 -3.008955
v -0.000000 -0.927307 -4.298482
v -0.000000 -1.002668 -3.008955
v -0.180913 -0.909492 -4.298482
v -0.195610 -0.983397 -3.008955
v -0.354869 -0.856726 -4.298482
v -0.383708 -0.926339 -3.008955
v -0.515188 -0.771033 -4.298482
v -0.557053 -0.833682 -3.008955
v -0.655712 -0.655711 -4.298482
v -0.708990 -0.708989 -3.008955
v -0.771034 -0.515186 -4.298482
v -0.833683 -0.557052 -3.008955
v -0.856726 -0.354867 -4.298482
v -0.926339 -0.383706 -3.008955
v -0.909492 -0.180912 -4.298482
v -0.983398 -0.195608 -3.008955
v -0.927315 0.000001 -4.298482
v -1.002668 0.000001 -3.008955
v -0.909492 0.180914 -4.298482
v -0.983397 0.195611 -3.008955
v -0.856726 0.354870 -4.298482
v -0.926338 0.383709 -3.008955
v -0.771033 0.515189 -4.298482
v -0.833682 0.557054 -3.008955
v -0.655710 0.655712 -4.298482
v -0.708989 0.708991 -3.008955
v -0.515186 0.771035 -4.298482
v -0.557051 0.833684 -3.008955
v -0.354867 0.856727 -4.298482
v -0.383706 0.926340 -3.008955
v -0.180911 0.909493 -4.298482
v -0.195608 0.983398 -3.008955
v 0.000000 1.002668 -3.008955
vn 0.0000 1.0000 0.0060
vn 0.1951 0.9808 0.0060
vn 0.3827 0.9239 0.0060
vn 0.5556 0.8315 0.0060
vn 0.7071 0.7071 0.0060
vn 0.8315 0.5556 0.0060
vn 0.9239 0.3827 0.0060
vn 0.9808 0.1951 0.0060
vn 1.0000 0.0000 0.0060
vn 0.9808 -0.1951 0.0060
vn 0.9239 -0.3827 0.0060
vn 0.8315 -0.5556 0.0060
vn 0.7071 -0.7071 0.0060
vn 0.5556 -0.8315 0.0060
vn 0.3827 -0.9239 0.0060
vn 0.1951 -0.9808 0.0060
vn -0.0000 -1.0000 0.0060
vn -0.1951 -0.9808 0.0060
vn -0.3827 -0.9239 0.0060
vn -0.5556 -0.8315 0.0060
vn -0.7071 -0.7071 0.0060
vn -0.8315 -0.5556 0.0060
vn -0.9239 -0.3827 0.0060
vn -0.9808 -0.1951 0.0060
vn -1.0000 0.0000 0.0060
vn -0.9808 0.1951 0.0060
vn -0.9239 0.3827 0.0060
vn -0.8315 0.5556 0.0060
vn -0.7071 0.7071 0.0060
vn -0.5556 0.8315 0.0060
vn -0.3827 0.9239 0.0060
vn -0.1951 0.9808 0.0060
vn -0.0000 -0.9998 -0.0184
vn -0.1951 -0.9806 -0.0184
vn -0.3826 -0.9237 -0.0184
vn -0.5555 -0.8313 -0.0184
vn -0.7070 -0.7070 -0.0184
vn -0.8313 -0.5555 -0.0184
vn -0.9237 -0.3826 -0.0184
vn -0.9806 -0.1951 -0.0184
vn -0.9998 0.0000 -0.0184
vn -0.9806 0.1951 -0.0184
vn -0.9237 0.3826 -0.0184
vn -0.8313 0.5555 -0.0184
vn -0.7070 0.7070 -0.0184
vn -0.5555 0.8313 -0.0184
vn -0.3826 0.9237 -0.0184
vn -0.1951 0.9806 -0.0184
vn 0.0000 0.9998 -0.0184
vn 0.1951 0.9806 -0.0184
vn 0.3826 0.9237 -0.0184
vn 0.5555 0.8313 -0.0184
vn 0.7070 0.7070 -0.0184
vn 0.8313 0.5555 -0.0184
vn 0.9237 0.3826 -0.0184
vn 0.9806 0.1951 -0.0184
vn 0.9998 -0.0000 -0.0184
vn 0.9806 -0.1950 -0.0184
vn 0.9237 -0.3826 -0.0184
vn 0.8313 -0.5555 -0.0184
vn 0.7070 -0.7070 -0.0184
vn 0.5555 -0.8313 -0.0184
vn 0.3826 -0.9237 -0.0184
vn 0.1951 -0.9806 -0.0184
vn -0.0167 -0.0839 0.9963
vn 0.0000 -0.0856 0.9963
vn -0.0327 -0.0790 0.9963
vn -0.0475 -0.0711 0.9963
vn -0.0605 -0.0605 0.9963
vn -0.0711 -0.0475 0.9963
vn -0.0790 -0.0327 0.9963
vn -0.0839 -0.0167 0.9963
vn -0.0856 0.0000 0.9963
vn -0.0839 0.0167 0.9963
vn -0.0790 0.0327 0.9963
vn -0.0711 0.0475 0.9963
vn -0.0605 0.0605 0.9963
vn -0.0475 0.0711 0.9963
vn -0.0327 0.0790 0.9963
vn -0.0167 0.0839 0.9963
vn 0.0000 0.0856 0.9963
vn 0.0167 0.0839 0.9963
vn 0.0327 0.0790 0.9963
vn 0.0475 0.0711 0.9963
vn 0.0605 0.0605 0.9963
vn 0.0711 0.0475 0.9963
vn 0.0790 0.0327 0.9963
vn 0.0839 0.0167 0.9963
vn 0.0856 -0.0000 0.9963
vn 0.0839 -0.0167 0.9963
vn 0.0790 -0.0327 0.9963
vn 0.0711 -0.0475 0.9963
vn 0.0605 -0.0605 0.9963
vn 0.0475 -0.0711 0.9963
vn 0.0327 -0.0790 0.9963
vn 0.0167 -0.0839 0.9963
vn -0.0136 0.0682 0.9976
vn -0.0000 0.0695 0.9976
vn 0.0136 0.0682 0.9976
vn 0.0266 0.0642 0.9976
vn 0.0386 0.0578 0.9976
vn 0.0492 0.0492 0.9976
vn 0.0578 0.0386 0.9976
vn 0.0642 0.0266 0.9976
vn 0.0682 0.0136 0.9976
vn 0.0695 -0.0000 0.9976
vn 0.0682 -0.0136 0.9976
vn 0.0642 -0.0266 0.9976
vn 0.0578 -0.0386 0.9976
vn -0.0000 -0.0695 0.9976
vn -0.0136 -0.0682 0.9976
vn 0.0492 -0.0492 0.9976
vn -0.0266 -0.0642 0.9976
vn -0.3827 0.9239 0.0000
vn -0.1951 0.9808 0.0000
vn 0.0000 1.0000 0.0000
vn -0.5556 0.8315 0.0000
vn -0.7071 0.7071 0.0000
vn -0.8315 0.5556 0.0000
vn -0.9239 0.3827 0.0000
vn -0.9808 0.1951 0.0000
vn -1.0000 0.0000 0.0000
vn -0.9808 -0.1951 -0.0000
vn -0.9239 -0.3827 -0.0000
vn -0.8315 -0.5556 0.0000
vn -0.7071 -0.7071 0.0000
vn -0.5556 -0.8315 -0.0000
vn -0.3827 -0.9239 -0.0000
vn -0.1951 -0.9808 -0.0000
vn -0.0000 -1.0000 -0.0000
vn 0.1951 -0.9808 -0.0000
vn 0.3827 -0.9239 -0.0000
vn 0.5556 -0.8315 0.0000
vn 0.7071 -0.7071 0.0000
vn 0.8315 -0.5556 0.0000
vn 0.9239 -0.3827 -0.0000
vn 0.9808 -0.1951 -0.0000
vn 1.0000 0.0000 0.0000
vn 0.9808 0.1951 0.0000
vn 0.9239 0.3827 -0.0000
vn 0.8315 0.5556 -0.0000
vn 0.7071 0.7071 0.0000
vn 0.5556 0.8315 0.0000
vn 0.3827 0.9239 0.0000
vn 0.1951 0.9808 0.0000
vn -0.0266 0.0642 0.9976
vn -0.0386 0.0578 0.9976
vn -0.0492 0.0492 0.9976
vn -0.0578 0.0386 0.9976
vn -0.0642 0.0266 0.9976
vn -0.0682 0.0136 0.9976
vn -0.0695 -0.0000 0.9976
vn -0.0682 -0.0136 0.9976
vn -0.0642 -0.0266 0.9976
vn -0.0578 -0.0386 0.9976
vn 0.0136 -0.0682 0.9976
vn -0.0492 -0.0492 0.9976
vn 0.0266 -0.0642 0.9976
vn -0.0386 -0.0578 0.9976
vn 0.0386 -0.0578 0.9976
vn 0.0522 -0.2626 -0.9635
vn -0.0000 -0.2677 -0.9635
vn -0.0522 -0.2626 -0.9635
vn -0.1025 -0.2473 -0.9635
vn -0.1487 -0.2226 -0.9635
vn -0.1893 -0.1893 -0.9635
vn -0.2226 -0.1487 -0.9635
vn -0.2473 -0.1025 -0.9635
vn -0.2626 -0.0522 -0.9635
vn -0.2677 0.0000 -0.9635
vn -0.2626 0.0522 -0.9635
vn -0.2473 0.1025 -0.9635
vn -0.2226 0.1487 -0.9635
vn -0.0000 0.2677 -0.9635
vn 0.0522 0.2626 -0.9635
vn -0.1893 0.1893 -0.9635
vn 0.1025 0.2473 -0.9635
vn 0.3820 -0.9223 0.0583
vn 0.1948 -0.9791 0.0583
vn -0.0000 -0.9983 0.0583
vn 0.5546 -0.8301 0.0583
vn 0.7059 -0.7059 0.0583
vn 0.8301 -0.5546 0.0583
vn 0.9223 -0.3820 0.0583
vn 0.9791 -0.1948 0.0583
vn 0.9983 -0.0000 0.0583
vn 0.9791 0.1948 0.0583
vn 0.9223 0.3820 0.0583
vn 0.8301 0.5546 0.0583
vn 0.7059 0.7059 0.0583
vn 0.5546 0.8301 0.0583
vn 0.3820 0.9223 0.0583
vn 0.1948 0.9791 0.0583
vn 0.0000 0.9983 0.0583
vn -0.1948 0.9791 0.0583
vn -0.3820 0.9223 0.0583
vn -0.5546 0.8301 0.0583
vn -0.7059 0.7059 0.0583
vn -0.8301 0.5546 0.0583
vn -0.9223 0.3820 0.0583
vn -0.9791 0.1948 0.0583
vn -0.9983 -0.0000 0.0583
vn -0.9791 -0.1948 0.0583
vn -0.9223 -0.3820 0.0583
vn -0.8301 -0.5546 0.0583
vn -0.7059 -0.7059 0.0583
vn -0.5546 -0.8301 0.0583
vn -0.3820 -0.9223 0.0583
vn -0.1948 -0.9791 0.0583
vn 0.1025 -0.2473 -0.9635
vn 0.1487 -0.2226 -0.9635
vn 0.1893 -0.1893 -0.9635
vn 0.2226 -0.1487 -0.9635
vn 0.2473 -0.1025 -0.9635
vn 0.2626 -0.0522 -0.9635
vn 0.2677 0.0000 -0.9635
vn 0.2626 0.0522 -0.9635
vn 0.2473 0.1025 -0.9635
vn 0.2226 0.1487 -0.9635
vn -0.0522 0.2626 -0.9635
vn 0.1893 0.1893 -0.9635
vn -0.1025 0.2473 -0.9635
vn 0.1487 0.2226 -0.9635
vn -0.1487 0.2226 -0.9635
vn -0.0000 0.0000 -1.0000
usemtl gun_body
s 1
f 33//1 1//1 2//2 34//2
f 34//2 2//2 3//3 35//3
f 35//3 3//3 4//4 36//4
f 36//4 4//4 5//5 37//5
f 37//5 5//5 6//6 38//6
f 38//6 6//6 7//7 39//7
f 39//7 7//7 8//8 40//8
f 40//8 8//8 9//9 41//9
f 41//9 9//9 10//10 42//10
f 42//10 10//10 11//11 43//11
f 43//11 11//11 12//12 44//12
f 44//12 12//12 13//13 45//13
f 45//13 13//13 14//14 46//14
f 46//14 14//14 15//15 47//15
f 47//15 15//15 16//16 48//16
f 48//16 16//16 17//17 49//17
f 49//17 17//17 18//18 50//18
f 50//18 18//18 19//19 51//19
f 51//19 19//19 20//20 52//20
f 52//20 20//20 21//21 53//21
f 53//21 21//21 22//22 54//22
f 54//22 22//22 23//23 55//23
f 55//23 23//23 24//24 56//24
f 56//24 24//24 25//25 57//25
f 57//25 25//25 26//26 58//26
f 58//26 26//26 27//27 59//27
f 59//27 27//27 28//28 60//28
f 60//28 28//28 29//29 61//29
f 61//29 29//29 30//30 62//30
f 62//30 30//30 31//31 63//31
f 63//31 31//31 32//32 64//32
f 64//32 32//32 1//1 33//1
f 161//33 162//34 130//34 129//33
f 162//34 163//35 131//35 130//34
f 163//35 164//36 132//36 131//35
f 164//36 165//37 133//37 132//36
f 165//37 166//38 134//38 133//37
f 166//38 167//39 135//39 134//38
f 167//39 168//40 136//40 135//39
f 168//40 169//41 137//41 136//40
f 169//41 170//42 138//42 137//41
f 170//42 171//43 139//43 138//42
f 171//43 172//44 140//44 139//43
f 172//44 173//45 141//45 140//44
f 173//45 174//46 142//46 141//45
f 174//46 175//47 143//47 142//46
f 175//47 176//48 144//48 143//47
f 176//48 177//49 145//49 144//48
f 177//49 178//50 146//50 145//49
f 178//50 179//51 147//51 146//50
f 179//51 180//52 148//52 147//51
f 180//52 181//53 149//53 148//52
f 181//53 182//54 150//54 149//53
f 182//54 183//55 151//55 150//54
f 183//55 184//56 152//56 151//55
f 184//56 185//57 153//57 152//56
f 185//57 186//58 154//58 153//57
f 186//58 187//59 155//59 154//58
f 187//59 188//60 156//60 155//59
f 188//60 189//61 157//61 156//60
f 189//61 190//62 158//62 157//61
f 190//62 191//63 159//63 158//62
f 191//63 192//64 160//64 159//63
f 192//64 161//33 129//33 160//64
f 2//65 1//66 129//66 130//65
f 3//67 2//65 130//65 131//67
f 4//68 3//67 131//67 132//68
f 5//69 4//68 132//68 133//69
f 6//70 5//69 133//69 134//70
f 7//71 6//70 134//70 135//71
f 8//72 7//71 135//71 136//72
f 9//73 8//72 136//72 137//73
f 10//74 9//73 137//73 138//74
f 11//75 10//74 138//74 139//75
f 12//76 11//75 139//75 140//76
f 13//77 12//76 140//76 141//77
f 14//78 13//77 141//77 142//78
f 15//79 14//78 142//78 143//79
f 16//80 15//79 143//79 144//80
f 17//81 16//80 144//80 145//81
f 18//82 17//81 145//81 146//82
f 19//83 18//82 146//82 147//83
f 20//84 19//83 147//83 148//84
f 21//85 20//84 148//84 149//85
f 22//86 21//85 149//85 150//86
f 23//87 22//86 150//86 151//87
f 24//88 23//87 151//87 152//88
f 25//89 24//88 152//88 153//89
f 26//90 25//89 153//89 154//90
f 27//91 26//90 154//90 155//91
f 28//92 27//91 155//91 156//92
f 29//93 28//92 156//92 157//93
f 30//94 29//93 157//93 158//94
f 31//95 30//94 158//94 159//95
f 32//96 31//95 159//95 160//96
f 1//66 32//96 160//96 129//66
usemtl gun_mouse
f 48//97 49//98 97//98 95//97
f 49//98 50//99 99//99 97//98
f 50//99 51//100 101//100 99//99
f 51//100 52//101 103//101 101//100
f 52//101 53//102 105//102 103//101
f 53//102 54//103 107//103 105//102
f 54//103 55//104 109//104 107//103
f 55//104 56//105 111//105 109//104
f 56//105 57//106 113//106 111//105
f 57//106 58//107 115//107 113//106
f 58//107 59//108 117//108 115//107
f 59//108 60//109 119//109 117//108
f 33//110 34//111 67//111 128//110
f 60//109 61//112 121//112 119//109
f 34//111 35//113 69//113 67//111
f 124//114 125//114 127//115 126//115
f 126//115 127//115 128//116 65//116
f 122//117 123//117 125//114 124//114
f 120//118 121//118 123//117 122//117
f 118//119 119//119 121//118 120//118
f 116//120 117//120 119//119 118//119
f 114//121 115//121 117//120 116//120
f 112//122 113//122 115//121 114//121
f 110//123 111//123 113//122 112//122
f 108//124 109//124 111//123 110//123
f 106//125 107//125 109//124 108//124
f 104//126 105//126 107//125 106//125
f 102//127 103//127 105//126 104//126
f 100//128 101//128 103//127 102//127
f 98//129 99//129 101//128 100//128
f 96//130 97//130 99//129 98//129
f 94//131 95//131 97//130 96//130
f 92//132 93//132 95//131 94//131
f 90//133 91//133 93//132 92//132
f 88//134 89//134 91//133 90//133
f 86//135 87//135 89//134 88//134
f 84//136 85//136 87//135 86//135
f 82//137 83//137 85//136 84//136
f 80//138 81//138 83//137 82//137
f 78//139 79//139 81//138 80//138
f 76//140 77//140 79//139 78//139
f 74//141 75//141 77//140 76//140
f 72//142 73//142 75//141 74//141
f 70//143 71//143 73//142 72//142
f 68//144 69//144 71//143 70//143
f 66//145 67//145 69//144 68//144
f 65//116 128//116 67//145 66//145
f 47//146 48//97 95//97 93//146
f 46//147 47//146 93//146 91//147
f 45//148 46//147 91//147 89//148
f 44//149 45//148 89//148 87//149
f 43//150 44//149 87//149 85//150
f 42//151 43//150 85//150 83//151
f 41//152 42//151 83//151 81//152
f 40//153 41//152 81//152 79//153
f 39//154 40//153 79//153 77//154
f 38//155 39//154 77//154 75//155
f 64//156 33//110 128//110 127//156
f 37//157 38//155 75//155 73//157
f 63//158 64//156 127//156 125//158
f 36//159 37//157 73//157 71//159
f 62//160 63//158 125//158 123//160
f 35//113 36//159 71//159 69//113
f 61//112 62//160 123//160 121//112
f 176//161 223//161 225//162 177//162
f 177//162 225//162 227//163 178//163
f 178//163 227//163 229//164 179//164
f 179//164 229//164 231//165 180//165
f 180//165 231//165 233//166 181//166
f 181//166 233//166 235//167 182//167
f 182//167 235//167 237//168 183//168
f 183//168 237//168 239//169 184//169
f 184//169 239//169 241//170 185//170
f 185//170 241//170 243//171 186//171
f 186//171 243//171 245//172 187//172
f 187//172 245//172 247//173 188//173
f 161//174 256//174 195//175 162//175
f 188//173 247//173 249//176 189//176
f 162//175 195//175 197//177 163//177
f 252//178 254//179 255//179 253//178
f 254//179 193//180 256//180 255//179
f 250//181 252//178 253//178 251//181
f 248//182 250//181 251//181 249//182
f 246//183 248//182 249//182 247//183
f 244//184 246//183 247//183 245//184
f 242//185 244//184 245//184 243//185
f 240//186 242//185 243//185 241//186
f 238//187 240//186 241//186 239//187
f 236//188 238//187 239//187 237//188
f 234//189 236//188 237//188 235//189
f 232//190 234//189 235//189 233//190
f 230//191 232//190 233//190 231//191
f 228//192 230//191 231//191 229//192
f 226//193 228//192 229//192 227//193
f 224//194 226//193 227//193 225//194
f 222//195 224//194 225//194 223//195
f 220//196 222//195 223//195 221//196
f 218//197 220//196 221//196 219//197
f 216//198 218//197 219//197 217//198
f 214//199 216//198 217//198 215//199
f 212//200 214//199 215//199 213//200
f 210//201 212//200 213//200 211//201
f 208//202 210//201 211//201 209//202
f 206//203 208//202 209//202 207//203
f 204//204 206//203 207//203 205//204
f 202//205 204//204 205//204 203//205
f 200//206 202//205 203//205 201//206
f 198//207 200//206 201//206 199//207
f 196//208 198//207 199//207 197//208
f 194//209 196//208 197//208 195//209
f 193//180 194//209 195//209 256//180
f 175//210 221//210 223//161 176//161
f 174//211 219//211 221//210 175//210
f 173//212 217//212 219//211 174//211
f 172//213 215//213 217//212 173//212
f 171//214 213//214 215//213 172//213
f 170//215 211//215 213//214 171//214
f 169//216 209//216 211//215 170//215
f 168//217 207//217 209//216 169//216
f 167//218 205//218 207//217 168//217
f 166//219 203//219 205//218 167//218
f 192//220 255//220 256//174 161//174
f 165//221 201//221 203//219 166//219
f 191//222 253//222 255//220 192//220
f 164//223 199//223 201//221 165//221
f 190//224 251//224 253//222 191//222
f 163//177 197//177 199//223 164//223
f 189//176 249//176 251//224 190//224
f 65//225 66//225 194//225 193//225
f 66//225 68//225 196//225 194//225
f 68//225 70//225 198//225 196//225
f 70//225 72//225 200//225 198//225
f 72//225 74//225 202//225 200//225
f 74//225 76//225 204//225 202//225
f 76//225 78//225 206//225 204//225
f 78//225 80//225 208//225 206//225
f 80//225 82//225 210//225 208//225
f 82//225 84//225 212//225 210//225
f 84//225 86//225 214//225 212//225
f 86//225 88//225 216//225 214//225
f 88//225 90//225 218//225 216//225
f 90//225 92//225 220//225 218//225
f 92//225 94//225 222//225 220//225
f 94//225 96//225 224//225 222//225
f 96//225 98//225 226//225 224//225
f 98//225 100//225 228//225 226//225
f 100//225 102//225 230//225 228//225
f 102//225 104//225 232//225 230//225
f 104//225 106//225 234//225 232//225
f 106//225 108//225 236//225 234//225
f 108//225 110//225 238//225 236//225
f 110//225 112//225 240//225 238//225
f 112//225 114//225 242//225 240//225
f 114//225 116//225 244//225 242//225
f 116//225 118//225 246//225 244//225
f 118//225 120//225 248//225 246//225
f 120//225 122//225 250//225 248//225
f 122//225 124//225 252//225 250//225
f 124//225 126//225 254//225 252//225
f 126//225 65//225 193//225 254//225
