# Blender v2.79 (sub 0) OBJ File: 'buidling.blend'
# www.blender.org
mtllib buidling_0.mtl
o Cube
v -1.393733 -2.973141 1.499914
v 1.393733 2.701001 -1.014886
v -1.393733 2.701001 0.959460
v 1.519426 2.701001 -1.519425
v 1.519426 2.837071 -1.519425
v 1.610063 2.837570 -1.610061
v 1.610063 2.972642 -1.610061
v 1.610061 2.837570 1.610063
v 1.610061 2.972642 1.610063
v -1.115614 -2.973141 1.393732
v 1.139900 -2.973141 1.393733
v 1.139899 2.701001 1.393733
v -1.115613 -2.973141 -1.499915
v -1.115614 -2.973141 1.499914
v 1.393733 -2.973141 -1.499915
v -1.115614 2.701001 1.499914
v 1.139900 -2.973141 -1.499915
v 1.139900 -2.973141 1.499915
v 1.139899 2.701001 1.499915
v -1.115614 -0.919562 1.393732
v 1.139899 -0.919562 1.393733
v -1.115614 -0.919562 1.499914
v 1.139899 -0.919562 1.499915
v 1.139899 1.131032 1.393733
v 1.139899 1.131032 1.499915
v 1.393732 -0.919562 1.393733
v -1.115614 -0.037540 -1.393733
v 1.139900 -0.351400 -1.393732
v 1.393733 -0.919562 -1.499914
v 1.393732 -0.919562 1.499915
v -1.393732 -0.919562 -1.499915
v -1.115613 -0.919562 -1.499915
v 1.139900 -0.919562 -1.499914
v -0.587948 -2.973141 1.393732
v -1.519444 2.973141 1.519443
v -1.115614 2.701001 1.393732
v -1.519426 2.701001 1.519425
v -1.519426 2.837071 1.519425
v -1.610062 2.972642 1.610061
v -1.610062 2.837570 1.610061
v -0.587948 -1.554605 1.721191
v 0.702514 -2.973141 1.393732
v 0.702513 -0.136070 1.524400
v 0.702513 1.282466 1.504863
v 0.702513 -1.554605 1.721191
v -1.393733 2.701001 1.499914
v -1.115614 2.701001 -1.393732
v 1.393733 1.069857 -0.689386
v 1.393732 2.701001 1.499915
v 1.393733 2.701001 -1.499914
v -1.393732 2.701001 -1.499915
v -1.115614 2.701001 -1.499915
v 1.139900 2.701001 -1.499914
v -0.587948 0.981749 1.524400
v -0.587948 -1.451993 1.393732
v 0.702513 -1.451993 1.393733
v 0.844664 -2.973141 1.393733
v 0.844664 -0.257475 1.393733
v 0.844664 1.190056 1.393733
v 1.139900 2.701001 -1.393732
v 0.844664 -1.451993 1.393733
v -0.737785 -2.973141 1.393732
v -0.737785 -1.451993 1.393732
v 0.956744 -2.973141 0.513535
v -0.587948 -2.973141 0.571801
v 0.702514 -2.973141 0.571801
v 1.393733 -0.257475 -0.689386
v 1.393733 1.190056 -0.689386
v 1.519444 2.973141 -1.519442
v 1.393733 -1.554605 -0.689386
v 1.393733 -2.973141 1.499915
v 1.393732 2.701001 0.959461
v 1.519443 2.973141 1.519444
v 1.519425 2.701001 1.519426
v 1.519425 2.837071 1.519426
v 1.610061 2.972642 0.606707
v 1.610061 2.837570 0.606707
v 1.481852 -0.136070 0.478576
v 1.393733 -1.554605 0.571801
v 1.487331 -1.451993 0.478576
v -0.889240 -2.973141 0.513535
v -1.393732 -2.973141 -1.499915
v -1.519443 2.973141 -1.519444
v -1.393733 2.701001 -1.014886
v -1.519426 2.701001 -1.519426
v -1.519426 2.837071 -1.519426
v -1.610062 2.972642 -1.610062
v -1.610062 2.837570 -1.610062
v 1.139900 -2.973141 -1.393732
v -1.115613 -2.973141 -1.393733
v 1.481853 -0.136070 -0.582694
v 1.502648 1.282466 -0.582693
v 1.487331 -1.451993 -0.582694
v -0.587948 -0.515145 1.393732
v 0.702513 -0.515145 1.393733
v 1.393733 -0.434607 -0.689386
v 1.393732 -0.434607 0.571801
v -0.587948 -0.136070 0.775093
v -0.587948 1.282465 0.775093
v 0.702513 -0.136070 0.775093
v 0.702513 1.282465 0.775094
v -0.587948 2.399786 0.775093
v 0.702513 2.399786 0.775094
v -0.587948 0.981749 0.775093
v 0.702513 0.981749 0.775094
v -0.587948 -0.515145 0.775093
v 0.702513 -0.515145 0.775093
v -0.587948 -1.451993 0.775093
v 0.702513 -1.451993 0.775093
v 0.784928 -0.136070 0.478576
v 0.784928 1.282465 0.478576
v 0.784928 2.399786 0.478576
v 0.784928 0.981749 0.478576
v 0.784929 -0.515145 0.478576
v 0.784929 -1.451993 0.478576
v 0.784929 -0.136070 -0.582694
v 0.784929 1.282465 -0.582693
v 0.784929 2.399786 -0.582693
v 0.784929 0.981749 -0.582693
v 0.784929 -0.515145 -0.582694
v 0.784929 -1.451993 -0.582694
v -0.587948 -1.554605 0.534989
v 0.702513 -1.554605 0.534989
v -0.737786 1.190056 1.393732
v 1.393732 1.190056 0.571802
v -0.737786 1.069857 1.393732
v 0.844664 1.069857 1.393733
v 1.393732 1.069857 0.571802
v -0.737786 -0.257475 1.393732
v 1.393732 -0.257475 0.571801
v -0.587948 -2.973141 1.721191
v -0.587948 -1.451993 1.721191
v 0.844664 -2.973141 1.721191
v 0.702514 -2.973141 1.721191
v 0.844664 -1.554605 1.721191
v 0.702513 -1.451993 1.721191
v -0.737785 -2.973141 1.721191
v -0.737785 -1.554605 1.721191
v -0.587948 -1.451993 1.785666
v -0.587948 -1.554605 1.785666
v 0.844664 -1.554605 1.785666
v 0.702513 -1.554605 1.785666
v 0.702513 -1.451993 1.785666
v 0.844664 -1.451993 1.785666
v -0.737785 -1.554605 1.785666
v -0.737785 -1.451993 1.785666
v -0.587948 -0.136070 1.524400
v 0.702513 0.981749 1.524400
v -0.737786 1.069857 1.524400
v 0.844664 1.069857 1.524400
v -0.737786 -0.257475 1.524400
v 0.844664 -0.257475 1.524400
v -0.737786 2.513829 1.393732
v 0.844663 2.513829 1.393733
v 1.393733 2.513829 -0.689386
v 1.393732 2.513829 0.571802
v -0.587948 1.282466 1.504862
v -0.587948 2.399786 1.504862
v 0.702513 2.399786 1.504863
v -0.737786 2.513829 1.504862
v 0.844663 2.513829 1.504863
v -0.737786 1.190056 1.504862
v 0.844664 1.190056 1.504863
v 1.502648 1.282466 0.478576
v 1.502648 2.399786 0.478576
v 1.502648 2.513829 -0.689386
v 1.502648 2.399786 -0.582693
v 1.502648 2.513829 0.571802
v 1.502648 1.190056 0.571802
v 1.502648 1.190056 -0.689386
v 1.481852 0.981749 0.478576
v 1.481853 1.069857 -0.689386
v 1.481853 0.981749 -0.582693
v 1.481852 1.069857 0.571802
v 1.481853 -0.257475 0.571801
v 1.481853 -0.257475 -0.689386
v 1.487331 -1.554605 0.571801
v 1.487331 -0.515145 0.478576
v 1.487332 -0.434607 -0.689386
v 1.487332 -1.554605 -0.689386
v 1.487332 -0.515145 -0.582694
v 1.487331 -0.434607 0.571801
v -0.587948 -0.515145 1.749211
v -0.587948 -1.451993 1.749210
v 0.702513 -0.515145 1.749211
v 0.702513 -1.451993 1.749211
v 0.844664 -1.451993 1.749211
v 0.844664 -0.257475 1.749211
v -0.737785 -1.451993 1.749210
v -0.737786 -0.257475 1.749210
vt 0.153417 0.260693
vt 0.138467 0.233099
vt 0.207625 0.259020
vt 0.698493 0.235279
vt 0.694810 0.248931
vt 0.698493 0.254377
vt 0.893207 0.225319
vt 0.899052 0.206725
vt 0.896351 0.202683
vt 0.313023 0.052303
vt 0.408892 0.180993
vt 0.394029 0.216265
vt 0.326172 0.230243
vt 0.296669 0.239072
vt 0.282149 0.023021
vt 0.291012 0.492719
vt 0.271390 0.521479
vt 0.299663 0.470024
vt 0.296615 0.247041
vt 0.290769 0.251834
vt 0.152788 0.350175
vt 0.156334 0.325208
vt 0.166779 0.326692
vt 0.345306 0.246433
vt 0.397595 0.229499
vt 0.408892 0.233558
vt 0.952505 0.208671
vt 0.952505 0.075742
vt 0.960822 0.075742
vt 0.964424 0.597729
vt 0.942642 0.597729
vt 0.942642 0.389402
vt 0.964424 0.389402
vt 0.964424 0.464799
vt 0.876424 0.246535
vt 0.823006 0.348959
vt 0.822761 0.350574
vt 0.875625 0.245621
vt 0.902696 0.205207
vt 0.902315 0.205988
vt 0.174520 0.324791
vt 0.168948 0.315687
vt 0.173085 0.309086
vt 0.184298 0.307123
vt 0.208743 0.323014
vt 0.377103 0.376425
vt 0.326141 0.339777
vt 0.288560 0.324550
vt 0.900090 0.206647
vt 0.350365 0.398421
vt 0.338807 0.409625
vt 0.357884 0.380962
vt 0.245884 0.411680
vt 0.269167 0.438743
vt 0.271472 0.441265
vt 0.189715 0.426931
vt 0.287495 0.334540
vt 0.309238 0.346716
vt 0.319329 0.393980
vt 0.316202 0.391903
vt 0.296137 0.375579
vt 0.292708 0.373804
vt 0.280576 0.358818
vt 0.228305 0.381176
vt 0.242963 0.407800
vt 0.292185 0.229969
vt 0.282839 0.221819
vt 0.300807 0.201214
vt 0.357618 0.250754
vt 0.339651 0.271359
vt 0.328106 0.244066
vt 0.365560 0.374246
vt 0.899154 0.204807
vt 0.759213 0.127561
vt 0.775100 0.116357
vt 0.770194 0.112767
vt 0.163462 0.274801
vt 0.215718 0.329314
vt 0.831832 0.331317
vt 0.817477 0.340253
vt 0.822360 0.343723
vt 0.315012 0.338359
vt 0.290655 0.329484
vt 0.924308 0.387535
vt 0.924308 0.367655
vt 0.966637 0.367655
vt 0.932624 0.387535
vt 0.932625 0.075742
vt 0.924308 0.075742
vt 0.924308 0.000344
vt 0.932625 0.000344
vt 0.510603 0.966320
vt 0.498856 0.947976
vt 0.505859 0.943491
vt 0.546249 0.943491
vt 0.142320 0.262164
vt 0.932625 0.151029
vt 0.924308 0.151029
vt 0.932625 0.208671
vt 0.924308 0.208671
vt 0.202735 0.273771
vt 0.185253 0.297084
vt 0.173952 0.297961
vt 0.165202 0.292545
vt 0.169510 0.279805
vt 0.952505 0.000344
vt 0.972741 0.389402
vt 0.972741 0.464799
vt 0.988683 0.209359
vt 0.988683 0.310430
vt 0.924308 0.310430
vt 0.924308 0.209359
vt 0.160477 0.313449
vt 0.159716 0.312735
vt 0.159735 0.312138
vt 0.160653 0.314122
vt 0.166927 0.327327
vt 0.161272 0.327620
vt 0.142194 0.333639
vt 0.127587 0.338247
vt 0.113464 0.293482
vt 0.147149 0.282855
vt 0.158366 0.289577
vt 0.157669 0.304731
vt 0.159562 0.313941
vt 0.160968 0.317368
vt 0.165036 0.321799
vt 0.161117 0.314038
vt 0.690375 0.250056
vt 0.822668 0.344921
vt 0.693775 0.249259
vt 0.769883 0.111318
vt 0.768878 0.106957
vt 0.768432 0.104987
vt 0.688811 0.250486
vt 0.770746 0.115512
vt 0.211081 0.322731
vt 0.164974 0.281024
vt 0.691146 0.250081
vt 0.819681 0.339578
vt 0.692976 0.930025
vt 0.702404 0.941373
vt 0.559612 0.941726
vt 0.573198 0.932157
vt 0.943722 0.786031
vt 0.953956 0.786031
vt 0.953956 0.834765
vt 0.943722 0.834765
vt 0.972741 0.597729
vt 0.309474 0.348169
vt 0.391178 0.316291
vt 0.335667 0.379950
vt 0.385963 0.943491
vt 0.487035 0.943491
vt 0.498168 0.952952
vt 0.374228 0.952952
vt 0.820784 0.551551
vt 0.921855 0.551551
vt 0.921855 0.577198
vt 0.820784 0.577198
vt 0.193229 0.281026
vt 0.205615 0.299811
vt 0.161047 0.329196
vt 0.148661 0.310410
vt 0.124972 0.943491
vt 0.248912 0.943491
vt 0.248912 0.953725
vt 0.124972 0.953725
vt 0.703091 0.929926
vt 0.703091 0.874077
vt 0.728739 0.874077
vt 0.728739 0.926159
vt 0.733788 0.926159
vt 0.733788 0.929926
vt 0.205236 0.272006
vt 0.661086 0.989877
vt 0.669041 0.999656
vt 0.559612 0.995804
vt 0.569150 0.988321
vt 0.831902 0.435094
vt 0.822871 0.424704
vt 0.934457 0.418993
vt 0.922815 0.428748
vt 0.924200 0.494433
vt 0.934537 0.486733
vt 0.930163 0.550863
vt 0.922740 0.541572
vt 0.829653 0.539419
vt 0.820784 0.546466
vt 0.820784 0.487864
vt 0.828196 0.496848
vt 0.937077 0.486046
vt 0.926708 0.474620
vt 0.559612 0.943666
vt 0.567575 0.953134
vt 0.296131 0.336733
vt 0.286012 0.337910
vt 0.220080 0.308908
vt 0.372247 0.260449
vt 0.267965 0.318744
vt 0.268997 0.323128
vt 0.255165 0.318843
vt 0.328452 0.318431
vt 0.328276 0.315413
vt 0.407857 0.239143
vt 0.452780 0.376648
vt 0.287192 0.343107
vt 0.215102 0.397228
vt 0.226206 0.347157
vt 0.256883 0.324579
vt 0.321069 0.316000
vt 0.252948 0.287082
vt 0.322182 0.319648
vt 0.249553 0.376648
vt 0.295973 0.340976
vt 0.416747 0.397228
vt 0.217396 0.338590
vt 0.122141 0.291281
vt 0.287809 0.291281
vt 0.218177 0.339170
vt 0.308117 0.373516
vt 0.307684 0.375426
vt 0.246286 0.405111
vt 0.240258 0.318277
vt 0.310847 0.375758
vt 0.378562 0.448083
vt 0.217466 0.339057
vt 0.312721 0.386366
vt 0.296358 0.344569
vt 0.295636 0.347770
vt 0.236146 0.376626
vt 0.230767 0.290819
vt 0.300935 0.348340
vt 0.366392 0.419651
vt 0.300823 0.345786
vt 0.409194 0.290819
vt 0.216685 0.338477
vt 0.147053 0.386366
vt 0.310777 0.374247
vt 0.421348 0.318277
vt 0.409146 0.295686
vt 0.746899 0.874077
vt 0.758033 0.874077
vt 0.758033 0.926159
vt 0.746899 0.926159
vt 0.820784 0.577885
vt 0.921854 0.577885
vt 0.921854 0.581653
vt 0.820784 0.581653
vt 0.857218 0.594076
vt 0.852169 0.594076
vt 0.852169 0.582341
vt 0.857218 0.582341
vt 0.734476 0.874077
vt 0.746212 0.874077
vt 0.746212 0.926159
vt 0.734476 0.926159
vt 0.953213 0.916525
vt 0.964346 0.916525
vt 0.964346 0.960382
vt 0.953213 0.950922
vt 0.929358 0.311118
vt 0.955005 0.311118
vt 0.955005 0.366967
vt 0.924308 0.366967
vt 0.924308 0.363200
vt 0.929358 0.363200
vt 0.169503 0.316588
vt 0.857906 0.592533
vt 0.869040 0.592533
vt 0.869040 0.596301
vt 0.857906 0.596301
vt 0.857906 0.588078
vt 0.869642 0.588078
vt 0.869642 0.591845
vt 0.857906 0.591845
vt 0.857906 0.587390
vt 0.857906 0.582341
vt 0.869040 0.582341
vt 0.869040 0.587390
vt 0.922543 0.551551
vt 0.934278 0.551551
vt 0.934278 0.585947
vt 0.922543 0.595408
vt 0.869727 0.592533
vt 0.874777 0.592533
vt 0.874777 0.596301
vt 0.869727 0.596301
vt 0.873495 0.582341
vt 0.873495 0.587390
vt 0.869727 0.587390
vt 0.869727 0.582341
vt 0.763526 0.727937
vt 0.887467 0.727936
vt 0.876333 0.732394
vt 0.775262 0.732394
vt 0.943722 0.741068
vt 0.954855 0.736610
vt 0.954855 0.785344
vt 0.943722 0.782109
vt 0.942642 0.642962
vt 0.954377 0.647419
vt 0.954377 0.688460
vt 0.942642 0.691695
vt 0.136707 0.954413
vt 0.237779 0.954413
vt 0.248913 0.957648
vt 0.124972 0.957648
vt 0.963447 0.915837
vt 0.953213 0.915837
vt 0.953213 0.867104
vt 0.963447 0.867104
vt 0.249600 0.953725
vt 0.249600 0.943491
vt 0.373540 0.943491
vt 0.373540 0.953725
vt 0.820784 0.486046
vt 0.832370 0.476691
vt 0.575321 0.885741
vt 0.691113 0.888609
vt 0.682170 0.891708
vt 0.586473 0.890104
vt 0.682306 0.925679
vt 0.586104 0.926524
vt 0.566015 0.874077
vt 0.702404 0.879803
vt 0.838015 0.437919
vt 0.839457 0.472117
vt 0.915076 0.433289
vt 0.917041 0.469545
vt 0.835683 0.501437
vt 0.835734 0.536394
vt 0.914595 0.500382
vt 0.914604 0.537481
vt 0.574813 0.956945
vt 0.575074 0.985567
vt 0.662329 0.950550
vt 0.653022 0.955605
vt 0.653066 0.986211
vt 0.673627 0.942414
vt 0.825834 0.582341
vt 0.851481 0.582341
vt 0.851481 0.594076
vt 0.820784 0.594076
vt 0.820784 0.582341
vt 0.746948 0.958456
vt 0.703091 0.958456
vt 0.703091 0.930614
vt 0.746948 0.930614
vt 0.202620 0.379950
vt 0.124284 0.971333
vt 0.000344 0.971333
vt 0.000344 0.943491
vt 0.124284 0.943491
vt 0.970483 0.598417
vt 0.970483 0.642274
vt 0.942642 0.642274
vt 0.942642 0.598417
vn 0.0000 -1.0000 0.0000
vn -1.0000 -0.0000 -0.0000
vn 1.0000 0.0000 0.0000
vn -0.0000 0.0000 1.0000
vn 0.0000 0.0000 -1.0000
vn 0.0055 -1.0000 0.0000
vn 0.0000 1.0000 0.0000
vn 0.0055 1.0000 -0.0000
vn 0.0000 -1.0000 -0.0055
vn -0.0000 1.0000 0.0055
vn 0.0000 1.0000 -0.0055
vn -0.0000 -1.0000 0.0055
vn -0.0055 -1.0000 0.0000
vn -0.0055 1.0000 0.0000
vn -0.0000 0.0259 0.9997
usemtl buiding
s off
f 10/1/1 1/2/1 81/3/1
f 84/4/1 85/5/1 47/6/1
f 72/7/1 74/8/1 12/9/1
f 3/10/2 84/11/2 51/12/2 31/13/2 82/14/2 1/2/2 46/15/2
f 72/16/3 49/17/3 156/18/3
f 82/14/1 13/19/1 90/20/1
f 71/21/1 18/22/1 11/23/1
f 27/24/3 52/25/3 47/26/3
f 49/27/3 30/28/3 26/29/3
f 16/30/4 46/31/4 1/32/4 14/33/4 22/34/4
f 77/35/3 6/36/3 7/37/3 76/38/3 9/39/3 8/40/3
f 42/41/2 134/42/2 45/43/2 123/44/2 66/45/2
f 27/24/5 47/26/5 60/46/5 28/47/5 89/48/5 90/20/5
f 75/49/6 77/35/6 8/40/6
f 2/50/3 155/51/3 50/52/3
f 130/53/3 128/54/3 125/55/3 156/18/3 49/17/3 26/56/3 71/21/3 15/57/3 29/58/3 50/52/3 155/51/3 68/59/3 48/60/3 67/61/3 96/62/3 70/63/3 79/64/3 97/65/3
f 136/66/7 143/67/7 144/68/7 61/69/7 56/70/7
f 31/13/5 32/71/5 13/19/5 82/14/5
f 50/52/7 53/72/7 60/46/7 2/50/7
f 73/73/8 9/39/8 76/38/8
f 3/74/1 36/75/1 37/76/1
f 62/77/1 10/1/1 81/3/1
f 71/21/1 11/23/1 64/78/1
f 2/79/1 60/80/1 4/81/1
f 33/82/5 29/58/5 15/57/5 17/83/5
f 19/84/7 49/85/7 72/86/7 12/87/7
f 52/25/7 51/12/7 84/11/7 47/26/7
f 23/88/2 21/89/2 11/90/2 18/91/2
f 46/92/7 16/93/7 36/94/7 3/95/7
f 10/1/1 14/96/1 1/2/1
f 32/71/3 27/24/3 90/20/3 13/19/3
f 89/48/1 17/83/1 15/57/1
f 27/24/3 32/71/3 52/25/3
f 25/97/2 24/98/2 21/89/2 23/88/2
f 53/72/5 50/52/5 29/58/5 33/82/5
f 51/12/5 52/25/5 32/71/5 31/13/5
f 25/97/2 19/99/2 12/100/2 24/98/2
f 65/101/3 122/102/3 41/103/3 131/104/3 34/105/3
f 26/29/3 30/28/3 71/106/3
f 33/82/2 17/83/2 89/48/2 28/47/2
f 14/33/3 10/107/3 20/108/3 22/34/3
f 65/109/1 66/110/1 42/111/1 34/112/1
f 85/5/1 4/81/1 60/80/1 47/6/1
f 59/113/4 127/114/4 58/115/4 61/116/4 57/117/4 11/23/4 21/118/4 24/119/4 12/120/4 36/121/4 20/122/4 10/1/4 62/77/4 63/123/4 129/124/4 126/125/4 124/126/4 153/127/4 154/128/4
f 88/129/9 6/36/9 5/130/9 86/131/9
f 86/131/5 5/130/5 4/81/5 85/5/5
f 37/76/4 74/8/4 75/49/4 38/132/4
f 40/133/4 8/40/4 9/39/4 39/134/4
f 87/135/5 7/37/5 6/36/5 88/129/5
f 39/134/10 9/39/10 73/73/10 35/136/10
f 66/137/1 64/78/1 57/117/1 42/41/1
f 137/138/1 62/77/1 34/105/1 131/104/1
f 37/76/1 36/75/1 12/9/1 74/8/1
f 87/135/11 83/139/11 69/140/11 7/37/11
f 40/133/12 38/132/12 75/49/12 8/40/12
f 161/141/7 154/142/7 153/143/7 160/144/7
f 152/145/3 58/146/3 127/147/3 150/148/3
f 28/47/2 60/46/2 53/72/2
f 30/28/4 49/27/4 19/99/4 25/97/4 23/88/4 18/91/4 71/106/4
f 22/34/3 20/108/3 36/149/3 16/30/3
f 28/47/2 53/72/2 33/82/2
f 95/150/2 56/70/2 186/151/2 185/152/2
f 183/153/4 185/154/4 188/155/4 190/156/4
f 132/157/7 136/158/7 56/159/7 55/160/7
f 11/23/1 57/117/1 64/78/1
f 63/161/1 55/162/1 184/163/1 189/164/1
f 149/165/7 150/166/7 127/167/7 126/168/7
f 63/169/2 62/170/2 137/171/2 138/172/2 145/173/2 146/174/2
f 81/3/1 65/175/1 34/105/1 62/77/1
f 179/176/7 96/177/7 97/178/7 182/179/7
f 169/180/1 125/181/1 68/182/1 170/183/1
f 81/3/1 64/78/1 66/137/1 65/175/1
f 176/184/5 67/185/5 48/186/5 172/187/5
f 82/14/1 90/20/1 81/3/1 1/2/1
f 156/18/3 155/51/3 2/50/3 72/16/3
f 37/76/1 85/5/1 84/4/1 3/74/1
f 74/8/3 4/81/3 5/130/3 75/49/3
f 40/133/13 88/129/13 86/131/13 38/132/13
f 76/38/8 7/37/8 69/140/8 73/73/8
f 89/48/1 15/57/1 71/21/1 64/78/1
f 174/188/4 128/189/4 130/190/4 175/191/4
f 81/3/1 90/20/1 89/48/1 64/78/1
f 170/183/5 68/182/5 155/192/5 166/193/5
f 172/187/7 48/186/7 128/189/7 174/188/7
f 39/134/14 35/136/14 83/139/14 87/135/14
f 74/8/1 72/7/1 2/79/1 4/81/1
f 85/5/2 37/76/2 38/132/2 86/131/2
f 88/129/2 40/133/2 39/134/2 87/135/2
f 77/35/6 75/49/6 5/130/6 6/36/6
f 182/179/4 97/178/4 79/194/4 177/195/4
f 101/196/7 99/197/7 157/198/7 44/199/7
f 109/200/2 56/70/2 95/150/2 107/201/2
f 109/200/7 108/202/7 55/162/7 56/70/7
f 105/203/2 100/204/2 43/205/2 148/206/2
f 102/207/3 158/208/3 157/198/3 99/197/3
f 107/201/1 95/150/1 94/209/1 106/210/1
f 100/204/7 98/211/7 147/212/7 43/205/7
f 104/213/3 54/214/3 147/212/3 98/211/3
f 103/215/2 101/196/2 44/199/2 159/216/2
f 106/210/3 94/209/3 55/162/3 108/202/3
f 103/215/1 159/216/1 158/208/1 102/207/1
f 105/203/1 148/206/1 54/214/1 104/213/1
f 105/203/4 104/213/4 98/211/4 100/204/4
f 102/207/4 99/197/4 101/196/4 103/215/4
f 107/201/4 106/210/4 108/202/4 109/200/4
f 115/217/7 80/218/7 93/219/7 121/220/7
f 111/221/5 112/222/5 165/223/5 164/224/5
f 118/225/1 167/226/1 165/223/1 112/222/1
f 120/227/4 121/220/4 93/219/4 181/228/4
f 110/229/5 113/230/5 171/231/5 78/232/5
f 119/233/1 173/234/1 171/231/1 113/230/1
f 116/235/4 91/236/4 173/234/4 119/233/4
f 115/217/5 114/237/5 178/238/5 80/218/5
f 116/235/7 110/229/7 78/232/7 91/236/7
f 120/227/1 181/228/1 178/238/1 114/237/1
f 117/239/4 92/240/4 167/226/4 118/225/4
f 117/239/7 111/221/7 164/224/7 92/240/7
f 119/233/3 113/230/3 110/229/3 116/235/3
f 118/225/3 112/222/3 111/221/3 117/239/3
f 120/227/3 114/237/3 115/217/3 121/220/3
f 123/44/1 45/43/1 41/103/1 122/102/1
f 123/44/15 122/102/15 65/101/15 66/45/15
f 128/54/3 48/60/3 68/59/3 125/55/3
f 126/125/4 127/114/4 59/113/4 124/126/4
f 175/191/1 130/190/1 67/185/1 176/184/1
f 97/65/3 96/62/3 67/61/3 130/53/3
f 56/70/1 61/69/1 187/241/1 186/151/1
f 134/242/4 133/243/4 135/244/4 45/245/4
f 41/246/4 45/247/4 136/248/4 132/249/4
f 145/250/1 138/251/1 41/252/1 140/253/1
f 137/254/4 131/255/4 41/256/4 138/257/4
f 186/258/4 187/259/4 188/260/4 185/261/4
f 133/262/3 57/263/3 61/264/3 144/265/3 141/266/3 135/267/3
f 134/42/1 42/41/1 57/117/1 133/268/1
f 142/269/4 141/270/4 144/271/4 143/272/4
f 145/273/4 140/274/4 139/275/4 146/276/4
f 142/277/1 45/278/1 135/279/1 141/280/1
f 189/281/4 184/282/4 183/283/4 190/284/4
f 140/285/3 41/286/3 132/287/3 139/288/3
f 143/289/2 136/290/2 45/291/2 142/292/2
f 151/293/4 152/294/4 43/295/4 147/296/4
f 43/297/4 152/298/4 150/299/4 148/300/4
f 151/301/4 147/302/4 54/303/4 149/304/4
f 54/305/4 148/306/4 150/307/4 149/308/4
f 149/309/2 126/310/2 129/311/2 151/312/2
f 151/313/1 129/314/1 58/315/1 152/316/1
f 166/193/7 155/192/7 156/317/7 168/318/7
f 162/319/4 163/320/4 44/321/4 157/322/4
f 44/321/4 163/320/4 161/141/4 159/323/4
f 162/319/4 157/322/4 158/324/4 160/144/4
f 158/324/4 159/323/4 161/141/4 160/144/4
f 162/319/1 124/325/1 59/326/1 163/320/1
f 163/320/3 59/326/3 154/142/3 161/141/3
f 160/144/2 153/143/2 124/325/2 162/319/2
f 169/180/3 164/327/3 165/328/3 168/318/3
f 169/180/3 170/183/3 92/329/3 164/327/3
f 92/329/3 170/183/3 166/193/3 167/330/3
f 165/328/3 167/330/3 166/193/3 168/318/3
f 168/318/4 156/317/4 125/181/4 169/180/4
f 175/191/3 78/331/3 171/332/3 174/188/3
f 175/191/3 176/184/3 91/333/3 78/331/3
f 91/333/3 176/184/3 172/187/3 173/334/3
f 171/332/3 173/334/3 172/187/3 174/188/3
f 177/195/3 80/335/3 178/336/3 182/179/3
f 177/195/3 180/337/3 93/338/3 80/335/3
f 181/339/3 93/338/3 180/337/3 179/176/3
f 178/336/3 181/339/3 179/176/3 182/179/3
f 180/337/5 70/340/5 96/177/5 179/176/5
f 177/195/1 79/194/1 70/340/1 180/337/1
f 69/140/7 83/139/7 35/136/7 73/73/7
f 132/341/7 55/342/7 63/343/7 146/344/7 139/345/7
f 129/346/2 63/347/2 189/348/2 190/349/2
f 55/162/3 94/209/3 183/350/3 184/163/3
f 94/209/1 95/150/1 185/152/1 183/350/1
f 58/351/7 129/352/7 190/353/7 188/354/7
f 61/355/3 58/356/3 188/357/3 187/358/3
